{"asset":{"version":"2.0","generator":"Blockbench 4.12.5 glTF exporter"},"scenes":[{"nodes":[1],"name":"blockbench_export"}],"scene":0,"nodes":[{"translation":[-2.401155031843533e-18,0,0],"name":"cylinder","mesh":0},{"children":[0]}],"bufferViews":[{"buffer":0,"byteOffset":0,"byteLength":2736,"target":34962,"byteStride":12},{"buffer":0,"byteOffset":2736,"byteLength":2736,"target":34962,"byteStride":12},{"buffer":0,"byteOffset":5472,"byteLength":1824,"target":34962,"byteStride":8},{"buffer":0,"byteOffset":7296,"byteLength":648,"target":34963}],"buffers":[{"byteLength":7944,"uri":"data:application/octet-stream;base64,"}],"accessors":[{"bufferView":0,"componentType":5126,"count":228,"max":[0.5441944003105164,0.7827451825141907,0.5444371700286865],"min":[-0.5441944003105164,-0.0009510608506388962,-0.5439515709877014],"type":"VEC3"},{"bufferView":1,"componentType":5126,"count":228,"max":[1,1,1],"min":[-1,-1,-1],"type":"VEC3"},{"bufferView":2,"componentType":5126,"count":228,"max":[0.828125,0.671875],"min":[0.00390625,0],"type":"VEC2"},{"bufferView":3,"componentType":5123,"count":324,"max":[227],"min":[0],"type":"SCALAR"}],"materials":[{"pbrMetallicRoughness":{"metallicFactor":0,"roughnessFactor":1,"baseColorTexture":{"index":0}},"alphaMode":"MASK","alphaCutoff":0.05,"doubleSided":true}],"textures":[{"sampler":0,"source":0,"name":"texture"}],"samplers":[{"magFilter":9728,"minFilter":9728,"wrapS":33071,"wrapT":33071}],"images":[{"mimeType":"image/png","uri":"data:image/png;base64,"}],"meshes":[{"primitives":[{"mode":4,"attributes":{"POSITION":0,"NORMAL":1,"TEXCOORD_0":2},"indices":3,"material":0}]}]}